<?xml version="1.0" encoding="UTF-8" standalone="no"?>
<!-- Created with Inkscape (http://www.inkscape.org/) -->

<svg
   xmlns:dc="http://purl.org/dc/elements/1.1/"
   xmlns:cc="http://creativecommons.org/ns#"
   xmlns:rdf="http://www.w3.org/1999/02/22-rdf-syntax-ns#"
   xmlns:svg="http://www.w3.org/2000/svg"
   xmlns="http://www.w3.org/2000/svg"
   xmlns:sodipodi="http://sodipodi.sourceforge.net/DTD/sodipodi-0.dtd"
   xmlns:inkscape="http://www.inkscape.org/namespaces/inkscape"
   width="16"
   height="16"
   id="svg2"
   inkscape:label="Pozadí"
   version="1.1"
   inkscape:version="0.48.4 r9939"
   sodipodi:docname="nekonet.svg"
   inkscape:export-filename="/home/nek0/Obrázky/nekonet.png"
   inkscape:export-xdpi="90"
   inkscape:export-ydpi="90">
  <defs
     id="defs3" />
  <sodipodi:namedview
     id="base"
     pagecolor="#ffffff"
     bordercolor="#666666"
     borderopacity="1.0"
     inkscape:pageopacity="0.0"
     inkscape:pageshadow="2"
     inkscape:zoom="4.07"
     inkscape:cx="10.904177"
     inkscape:cy="10.228706"
     inkscape:document-units="px"
     inkscape:current-layer="layer1"
     showgrid="false"
     inkscape:window-width="1680"
     inkscape:window-height="966"
     inkscape:window-x="0"
     inkscape:window-y="33"
     inkscape:window-maximized="1" />
  <metadata
     id="metadata6">
    <rdf:RDF>
      <cc:Work
         rdf:about="">
        <dc:format>image/svg+xml</dc:format>
        <dc:type
           rdf:resource="http://purl.org/dc/dcmitype/StillImage" />
        <dc:title></dc:title>
      </cc:Work>
    </rdf:RDF>
  </metadata>
  <g
     inkscape:label="Vrstva 1"
     inkscape:groupmode="layer"
     id="layer1"
     transform="translate(0,-1036.3622)">
    <flowRoot
       xml:space="preserve"
       id="flowRoot2984"
       style="fill:black;stroke:none;stroke-opacity:1;stroke-width:1px;stroke-linejoin:miter;stroke-linecap:butt;fill-opacity:1;font-family:Didact Gothic;font-style:normal;font-weight:500;font-size:40px;line-height:125%;letter-spacing:0px;word-spacing:0px;-inkscape-font-specification:Didact Gothic Medium;font-stretch:normal;font-variant:normal"><flowRegion
         id="flowRegion2986"><rect
           id="rect2988"
           width="6.6339068"
           height="118.67322"
           x="-35.626537"
           y="-30.683046" /></flowRegion><flowPara
         id="flowPara2990"></flowPara></flowRoot>    <g
       transform="matrix(1.1595079,0,0,1.1595079,-1.691967,1034.9665)"
       style="font-size:14px;font-style:normal;font-variant:normal;font-weight:500;font-stretch:normal;line-height:125%;letter-spacing:0px;word-spacing:0px;fill:#000000;fill-opacity:1;stroke:none;font-family:Didact Gothic;-inkscape-font-specification:Didact Gothic Medium"
       id="flowRoot2992">
      <path
         d="M 7.203125,8.1986289 C 7.6223892,8.4082696 7.9801362,8.5130872 8.2763672,8.513082 8.5725835,8.5130872 8.9303306,8.4082696 9.3496094,8.1986289 L 9.7734375,9.0189414 C 9.2265542,9.2969406 8.7275313,9.4359379 8.2763672,9.4359336 7.8160739,9.4359379 7.3170509,9.2969406 6.7792969,9.0189414 L 7.203125,8.1986289 m 1.09375,1.7226562 c 0.5195234,0.1686239 1.0436114,0.2529329 1.5722656,0.2529299 0.7200424,3e-6 1.4127504,-0.150387 2.0781254,-0.4511721 0.02277,0.1458372 0.03417,0.2757199 0.03418,0.3896481 -1.1e-5,0.3099 -0.06609,0.626631 -0.198242,0.950196 -0.246104,0.587892 -0.683604,1.050457 -1.3125,1.387695 C 9.8463453,12.783265 9.1285726,12.949606 8.3173828,12.949605 7.5061784,12.949606 6.786127,12.787823 6.1572266,12.464254 5.5283158,12.13613 5.079423,11.687238 4.8105469,11.117574 4.651038,10.77578 4.5712855,10.415755 4.5712891,10.037496 c -3.6e-6,-0.1048138 0.00683,-0.2096314 0.020508,-0.3144531 0.6790321,0.3007851 1.383133,0.4511751 2.1123047,0.4511721 0.551426,3e-6 1.0823499,-0.08431 1.5927734,-0.2529299 M 2.9169922,7.0638633 c -2e-6,0.164069 0.015948,0.4694072 0.047852,0.9160156 L 5.2412109,7.8363242 5.2753906,8.294332 3.0058594,8.4447226 c 0.036456,0.3372446 0.086586,0.653976 0.1503906,0.9501953 L 5.2617187,8.6771445 5.4121094,9.1078086 3.2792969,9.8460898 c 0.082029,0.2643262 0.1731746,0.5081412 0.2734375,0.7314452 0.4648407,1.02995 1.0686812,1.816082 1.8115234,2.358399 0.8248646,0.601562 1.7955667,0.902343 2.9121094,0.902343 1.116528,0 2.0872298,-0.300781 2.9121098,-0.902343 0.733713,-0.53776 1.335274,-1.323892 1.804687,-2.358399 0.118478,-0.255205 0.214181,-0.503577 0.287109,-0.7451171 l -2.098632,-0.7246093 0.15039,-0.4306641 2.064453,0.7041016 c 0.06379,-0.2825475 0.11392,-0.5970003 0.150391,-0.9433594 l -2.228516,-0.1435547 0.03418,-0.4580078 2.235352,0.1435547 c 0.02733,-0.3736918 0.041,-0.67903 0.04101,-0.9160156 -1.2e-5,-0.2096286 -0.01141,-0.430657 -0.03418,-0.663086 C 13.571928,6.168363 13.549141,5.9815142 13.526367,5.8402304 13.503568,5.6989624 13.46711,5.4938845 13.416992,5.2249961 13.36685,4.9561246 13.33267,4.7647186 13.314453,4.6507773 13.191394,3.9170632 13.034168,3.1696681 12.842773,2.4085898 11.735341,2.6729238 10.832998,3.2516993 10.135742,4.1449179 9.6070877,4.0492245 8.9895753,4.001373 8.2832031,4.0013633 7.5677017,4.001373 6.945632,4.0492245 6.4169922,4.1449179 5.7197218,3.2516993 4.817379,2.6729238 3.7099609,2.4085898 3.5185521,3.1696681 3.3613257,3.9170632 3.2382813,4.6507773 c -0.022789,0.1230559 -0.059247,0.3144619 -0.109375,0.5742188 -0.045575,0.2597738 -0.082033,0.4648518 -0.109375,0.6152343 -0.022789,0.1458411 -0.045575,0.3349685 -0.068359,0.5673829 -0.022788,0.2278716 -0.034182,0.4466214 -0.03418,0.65625 m -0.875,0.977539 c -0.022788,-0.3509054 -0.034181,-0.6835874 -0.03418,-0.9980469 -1e-6,-0.2597586 0.00683,-0.5104094 0.020508,-0.7519531 0.018228,-0.2415288 0.047851,-0.4967368 0.088867,-0.765625 0.045572,-0.273429 0.08203,-0.4830642 0.109375,-0.6289062 C 2.253905,4.7464894 2.3017565,4.5049532 2.3701172,4.1722617 2.4430324,3.835032 2.4908839,3.6117249 2.5136719,3.5023398 2.6184879,2.9691475 2.7574852,2.3835361 2.9306641,1.7455039 l 0.102539,-0.3964844 0.4101563,0.061523 c 0.6516896,0.1002727 1.2646447,0.3076292 1.8388672,0.6220704 0.5787711,0.3099072 1.0800727,0.6858834 1.5039062,1.1279296 0.4785093,-0.059234 0.9752536,-0.088856 1.4902344,-0.088867 0.5149661,1.06e-5 1.0117104,0.029633 1.4902344,0.088867 C 10.19042,2.7184967 10.689443,2.3425205 11.263672,2.0326133 11.842437,1.7181721 12.457671,1.5108156 13.109375,1.4105429 l 0.40332,-0.061523 0.109375,0.3964844 c 0.173165,0.6380322 0.312162,1.2236436 0.416993,1.7568359 0.02277,0.1093851 0.06835,0.3326922 0.136718,0.6699219 0.0729,0.3326915 0.123034,0.5742277 0.150391,0.7246094 0.02733,0.145842 0.06151,0.3554772 0.102539,0.6289062 0.04556,0.2688882 0.07518,0.5240962 0.08887,0.765625 0.01822,0.2415437 0.02733,0.4921945 0.02734,0.7519531 -1.4e-5,0.3099023 -0.01141,0.6403056 -0.03418,0.991211 l 0.717774,0.047852 -0.02734,0.4648438 -0.731445,-0.047852 c -0.03647,0.391932 -0.102553,0.7861373 -0.198243,1.1826172 l 0.710938,0.2460938 -0.150391,0.4374999 -0.683593,-0.232422 c -0.0866,0.273441 -0.19142,0.546878 -0.314454,0.820313 -0.528658,1.18034 -1.23048,2.089519 -2.105468,2.727539 -0.988942,0.720051 -2.1396574,1.080077 -3.4521488,1.080078 -1.3170633,-1e-6 -2.4700569,-0.360027 -3.4589844,-1.080078 C 3.9423798,13.043031 3.2405576,12.133852 2.7119141,10.953512 2.579751,10.661848 2.477212,10.392968 2.4042969,10.146871 L 1.7617187,10.365621 1.6113281,9.9281211 2.28125,9.6956992 C 2.1901029,9.3356776 2.1240223,8.9369149 2.0830078,8.4994101 L 1.3925781,8.5472617 1.3652344,8.0824179 2.0419922,8.0414023 M 6.9501953,7.528707 C 6.9501893,7.3327499 6.9251243,7.1322292 6.875,6.9271445 6.8294212,6.7220734 6.7496687,6.5420606 6.6357422,6.3871054 6.5263616,6.2276077 6.3964789,6.1478552 6.2460937,6.1478476 6.095698,6.1478552 5.9635367,6.2276077 5.8496094,6.3871054 5.7402296,6.5420606 5.6604771,6.7220734 5.6103516,6.9271445 5.564774,7.1276719 5.5419876,7.3281926 5.5419922,7.528707 l -0.9228516,0 C 4.619137,6.890693 4.778642,6.3483759 5.0976562,5.9017539 5.4166622,5.4551476 5.7994743,5.2318405 6.2460937,5.231832 6.6927026,5.2318405 7.0755147,5.4551476 7.3945312,5.9017539 7.7135349,6.3483759 7.87304,6.890693 7.8730469,7.528707 l -0.9228516,0 m 4.0468747,0 c -1e-5,-0.1959571 -0.02508,-0.3964778 -0.0752,-0.6015625 C 10.876292,6.7220734 10.79654,6.5420606 10.682617,6.3871054 10.573233,6.2276077 10.44335,6.1478552 10.292969,6.1478476 c -0.1504,7.6e-6 -0.282561,0.07976 -0.3964846,0.2392578 C 9.7871006,6.5420606 9.707348,6.7220734 9.6572266,6.9271445 9.611645,7.1276719 9.5888586,7.3281926 9.5888672,7.528707 l -0.9228516,0 C 8.6660079,6.890693 8.825513,6.3483759 9.1445313,5.9017539 9.4635332,5.4551476 9.8463453,5.2318405 10.292969,5.231832 c 0.446605,8.5e-6 0.829417,0.2233156 1.148437,0.6699219 0.319,0.446622 0.478505,0.9889391 0.478516,1.6269531 l -0.922852,0 m -2.1806637,3.479492 c -0.1640702,-0.0319 -0.3372471,-0.07291 -0.5195313,-0.123047 -0.1184968,0.0319 -0.2916737,0.07064 -0.5195313,0.116211 l 0,0.991211 c 0.1959566,0.02279 0.3759694,0.03418 0.5400391,0.03418 0.1868414,2e-6 0.3531824,-0.0091 0.4990235,-0.02734 l 0,-0.991211 m 0.9296875,0.08887 0,0.676758 c 0.4374912,-0.177732 0.7724512,-0.426104 1.0048832,-0.745117 -0.328135,0.04558 -0.624359,0.06836 -0.8886723,0.06836 l -0.1162109,0 m -2.8984376,0.663086 0,-0.663086 -0.1435546,0 c -0.2871149,3e-6 -0.5742239,-0.0205 -0.8613282,-0.06152 0.2369741,0.305341 0.5719347,0.546877 1.0048828,0.724609"
         style=""
         id="path3020" />
    </g>
  </g>
</svg>
